<svg width="197" height="190" viewBox="0 0 197 190" fill="none" xmlns="http://www.w3.org/2000/svg">
<rect x="0.658203" y="0.700928" width="195.918" height="188.939" rx="14.8767" fill="white"/>
<path d="M28.3495 41.3565V31.5565H34.3135V32.5225H29.5255V35.9665H33.5995V36.9185H29.5255V41.3565H28.3495ZM38.2012 41.5245C37.5479 41.5245 36.9599 41.3752 36.4372 41.0765C35.9145 40.7778 35.4992 40.3578 35.1912 39.8165C34.8925 39.2658 34.7432 38.6218 34.7432 37.8845C34.7432 37.1472 34.8972 36.5078 35.2052 35.9665C35.5132 35.4158 35.9285 34.9912 36.4512 34.6925C36.9832 34.3938 37.5759 34.2445 38.2292 34.2445C38.8825 34.2445 39.4705 34.3938 39.9932 34.6925C40.5159 34.9912 40.9265 35.4158 41.2252 35.9665C41.5332 36.5078 41.6872 37.1472 41.6872 37.8845C41.6872 38.6218 41.5332 39.2658 41.2252 39.8165C40.9172 40.3578 40.4972 40.7778 39.9652 41.0765C39.4425 41.3752 38.8545 41.5245 38.2012 41.5245ZM38.2012 40.5165C38.6025 40.5165 38.9759 40.4185 39.3212 40.2225C39.6665 40.0265 39.9465 39.7325 40.1612 39.3405C40.3759 38.9485 40.4832 38.4632 40.4832 37.8845C40.4832 37.3058 40.3759 36.8205 40.1612 36.4285C39.9559 36.0365 39.6805 35.7425 39.3352 35.5465C38.9899 35.3505 38.6212 35.2525 38.2292 35.2525C37.8279 35.2525 37.4545 35.3505 37.1092 35.5465C36.7639 35.7425 36.4839 36.0365 36.2692 36.4285C36.0545 36.8205 35.9472 37.3058 35.9472 37.8845C35.9472 38.4632 36.0545 38.9485 36.2692 39.3405C36.4839 39.7325 36.7592 40.0265 37.0952 40.2225C37.4405 40.4185 37.8092 40.5165 38.2012 40.5165ZM42.9024 41.3565V31.2765H44.0784V41.3565H42.9024ZM45.5859 41.3565V31.2765H46.7619V41.3565H45.5859ZM51.4334 41.5245C50.7801 41.5245 50.1921 41.3752 49.6694 41.0765C49.1467 40.7778 48.7314 40.3578 48.4234 39.8165C48.1247 39.2658 47.9754 38.6218 47.9754 37.8845C47.9754 37.1472 48.1294 36.5078 48.4374 35.9665C48.7454 35.4158 49.1607 34.9912 49.6834 34.6925C50.2154 34.3938 50.8081 34.2445 51.4614 34.2445C52.1147 34.2445 52.7027 34.3938 53.2254 34.6925C53.7481 34.9912 54.1587 35.4158 54.4574 35.9665C54.7654 36.5078 54.9194 37.1472 54.9194 37.8845C54.9194 38.6218 54.7654 39.2658 54.4574 39.8165C54.1494 40.3578 53.7294 40.7778 53.1974 41.0765C52.6747 41.3752 52.0867 41.5245 51.4334 41.5245ZM51.4334 40.5165C51.8347 40.5165 52.2081 40.4185 52.5534 40.2225C52.8987 40.0265 53.1787 39.7325 53.3934 39.3405C53.6081 38.9485 53.7154 38.4632 53.7154 37.8845C53.7154 37.3058 53.6081 36.8205 53.3934 36.4285C53.1881 36.0365 52.9127 35.7425 52.5674 35.5465C52.2221 35.3505 51.8534 35.2525 51.4614 35.2525C51.0601 35.2525 50.6867 35.3505 50.3414 35.5465C49.9961 35.7425 49.7161 36.0365 49.5014 36.4285C49.2867 36.8205 49.1794 37.3058 49.1794 37.8845C49.1794 38.4632 49.2867 38.9485 49.5014 39.3405C49.7161 39.7325 49.9914 40.0265 50.3274 40.2225C50.6727 40.4185 51.0414 40.5165 51.4334 40.5165ZM57.2748 41.3565L55.2448 34.4125H56.4208L57.8908 39.8585L59.5148 34.4125H60.8448L62.4828 39.8585L63.9388 34.4125H65.1288L63.0988 41.3565H61.8948L60.1868 35.6305L58.4788 41.3565H57.2748ZM68.8717 41.5245C68.209 41.5245 67.621 41.3752 67.1077 41.0765C66.5944 40.7685 66.1884 40.3438 65.8897 39.8025C65.6004 39.2612 65.4557 38.6218 65.4557 37.8845C65.4557 37.1565 65.6004 36.5218 65.8897 35.9805C66.179 35.4298 66.5804 35.0052 67.0937 34.7065C67.6164 34.3985 68.2184 34.2445 68.8997 34.2445C69.5717 34.2445 70.1504 34.3985 70.6357 34.7065C71.1304 35.0052 71.5084 35.4018 71.7697 35.8965C72.031 36.3912 72.1617 36.9232 72.1617 37.4925C72.1617 37.5952 72.157 37.6978 72.1477 37.8005C72.1477 37.9032 72.1477 38.0198 72.1477 38.1505H66.6177C66.6457 38.6825 66.767 39.1258 66.9817 39.4805C67.2057 39.8258 67.481 40.0872 67.8077 40.2645C68.1437 40.4418 68.4984 40.5305 68.8717 40.5305C69.357 40.5305 69.763 40.4185 70.0897 40.1945C70.4164 39.9705 70.6544 39.6672 70.8037 39.2845H71.9657C71.779 39.9285 71.4197 40.4652 70.8877 40.8945C70.365 41.3145 69.693 41.5245 68.8717 41.5245ZM68.8717 35.2385C68.3117 35.2385 67.8124 35.4112 67.3737 35.7565C66.9444 36.0925 66.697 36.5872 66.6317 37.2405H70.9997C70.9717 36.6152 70.757 36.1252 70.3557 35.7705C69.9544 35.4158 69.4597 35.2385 68.8717 35.2385ZM73.3004 41.3565V34.4125H74.3644L74.4624 35.7425C74.6771 35.2852 75.0037 34.9212 75.4424 34.6505C75.8811 34.3798 76.4224 34.2445 77.0664 34.2445V35.4765H76.7444C76.3337 35.4765 75.9557 35.5512 75.6104 35.7005C75.2651 35.8405 74.9897 36.0832 74.7844 36.4285C74.5791 36.7738 74.4764 37.2498 74.4764 37.8565V41.3565H73.3004ZM85.5354 41.5245C84.6208 41.5245 83.8181 41.3145 83.1274 40.8945C82.4368 40.4652 81.9001 39.8725 81.5174 39.1165C81.1348 38.3512 80.9434 37.4692 80.9434 36.4705C80.9434 35.4718 81.1348 34.5898 81.5174 33.8245C81.9094 33.0592 82.4601 32.4618 83.1694 32.0325C83.8881 31.6032 84.7328 31.3885 85.7034 31.3885C86.8048 31.3885 87.7194 31.6545 88.4474 32.1865C89.1848 32.7185 89.6608 33.4512 89.8754 34.3845H88.5174C88.3868 33.7965 88.0741 33.3298 87.5794 32.9845C87.0941 32.6392 86.4688 32.4665 85.7034 32.4665C84.9848 32.4665 84.3594 32.6298 83.8274 32.9565C83.2954 33.2738 82.8801 33.7312 82.5814 34.3285C82.2921 34.9258 82.1474 35.6398 82.1474 36.4705C82.1474 37.3012 82.2921 38.0152 82.5814 38.6125C82.8708 39.2098 83.2721 39.6718 83.7854 39.9985C84.2988 40.3158 84.8961 40.4745 85.5774 40.4745C86.6228 40.4745 87.4114 40.1712 87.9434 39.5645C88.4754 38.9485 88.7788 38.1085 88.8534 37.0445H86.0254V36.1205H90.0574V41.3565H88.9794L88.8814 39.7465C88.5268 40.3158 88.0928 40.7545 87.5794 41.0625C87.0661 41.3705 86.3848 41.5245 85.5354 41.5245ZM91.4271 41.3565V34.4125H92.4911L92.5891 35.7425C92.8038 35.2852 93.1305 34.9212 93.5691 34.6505C94.0078 34.3798 94.5491 34.2445 95.1931 34.2445V35.4765H94.8711C94.4605 35.4765 94.0825 35.5512 93.7371 35.7005C93.3918 35.8405 93.1165 36.0832 92.9111 36.4285C92.7058 36.7738 92.6031 37.2498 92.6031 37.8565V41.3565H91.4271ZM98.9973 41.5245C98.344 41.5245 97.756 41.3752 97.2333 41.0765C96.7106 40.7778 96.2953 40.3578 95.9873 39.8165C95.6886 39.2658 95.5393 38.6218 95.5393 37.8845C95.5393 37.1472 95.6933 36.5078 96.0013 35.9665C96.3093 35.4158 96.7246 34.9912 97.2473 34.6925C97.7793 34.3938 98.372 34.2445 99.0253 34.2445C99.6786 34.2445 100.267 34.3938 100.789 34.6925C101.312 34.9912 101.723 35.4158 102.021 35.9665C102.329 36.5078 102.483 37.1472 102.483 37.8845C102.483 38.6218 102.329 39.2658 102.021 39.8165C101.713 40.3578 101.293 40.7778 100.761 41.0765C100.239 41.3752 99.6506 41.5245 98.9973 41.5245ZM98.9973 40.5165C99.3986 40.5165 99.772 40.4185 100.117 40.2225C100.463 40.0265 100.743 39.7325 100.957 39.3405C101.172 38.9485 101.279 38.4632 101.279 37.8845C101.279 37.3058 101.172 36.8205 100.957 36.4285C100.752 36.0365 100.477 35.7425 100.131 35.5465C99.786 35.3505 99.4173 35.2525 99.0253 35.2525C98.624 35.2525 98.2506 35.3505 97.9053 35.5465C97.56 35.7425 97.28 36.0365 97.0653 36.4285C96.8506 36.8205 96.7433 37.3058 96.7433 37.8845C96.7433 38.4632 96.8506 38.9485 97.0653 39.3405C97.28 39.7325 97.5553 40.0265 97.8913 40.2225C98.2366 40.4185 98.6053 40.5165 98.9973 40.5165ZM104.839 41.3565L102.809 34.4125H103.985L105.455 39.8585L107.079 34.4125H108.409L110.047 39.8585L111.503 34.4125H112.693L110.663 41.3565H109.459L107.751 35.6305L106.043 41.3565H104.839ZM116.317 41.3565C115.683 41.3565 115.183 41.2025 114.819 40.8945C114.455 40.5865 114.273 40.0312 114.273 39.2285V35.4065H113.069V34.4125H114.273L114.427 32.7465H115.449V34.4125H117.493V35.4065H115.449V39.2285C115.449 39.6672 115.538 39.9658 115.715 40.1245C115.893 40.2738 116.205 40.3485 116.653 40.3485H117.381V41.3565H116.317ZM118.567 41.3565V31.2765H119.743V35.6025C119.977 35.1732 120.308 34.8418 120.737 34.6085C121.167 34.3658 121.633 34.2445 122.137 34.2445C122.94 34.2445 123.584 34.4965 124.069 35.0005C124.555 35.4952 124.797 36.2605 124.797 37.2965V41.3565H123.635V37.4225C123.635 35.9758 123.052 35.2525 121.885 35.2525C121.279 35.2525 120.77 35.4718 120.359 35.9105C119.949 36.3398 119.743 36.9558 119.743 37.7585V41.3565H118.567Z" fill="#9E9E9E"/>
<path d="M28.8947 72.6876V70.5793C30.1523 69.5807 31.3544 68.5728 32.501 67.5556C33.6476 66.5384 34.6647 65.5398 35.5524 64.5596C36.4586 63.5609 37.1707 62.59 37.6885 61.6468C38.2063 60.6852 38.4652 59.7605 38.4652 58.8728C38.4652 58.281 38.3635 57.7262 38.1601 57.2083C37.9566 56.672 37.6238 56.2467 37.1614 55.9323C36.6991 55.5994 36.0795 55.4329 35.3028 55.4329C34.1377 55.4329 33.2592 55.8028 32.6674 56.5426C32.0941 57.2823 31.8167 58.17 31.8352 59.2057H28.9779C28.9964 57.8371 29.2831 56.6905 29.8379 55.7658C30.4112 54.8411 31.1694 54.1384 32.1126 53.6575C33.0743 53.1767 34.1562 52.9363 35.3583 52.9363C37.1891 52.9363 38.6502 53.4541 39.7413 54.4898C40.8509 55.5069 41.4057 56.9309 41.4057 58.7618C41.4057 59.8529 41.1376 60.9348 40.6012 62.0075C40.0834 63.0801 39.3992 64.1158 38.5484 65.1144C37.7162 66.0946 36.8193 67.0193 35.8576 67.8885C34.8959 68.7577 33.9805 69.5437 33.1113 70.2464H41.9883V72.6876H28.8947ZM51.0443 73.0205C49.2874 73.0205 47.7709 72.6044 46.4948 71.7722C45.2373 70.9215 44.2663 69.7471 43.5821 68.2491C42.9163 66.7326 42.5834 64.9757 42.5834 62.9784C42.5834 60.9811 42.9163 59.2334 43.5821 57.7354C44.2663 56.2189 45.2373 55.0446 46.4948 54.2124C47.7709 53.3616 49.2874 52.9363 51.0443 52.9363C52.8012 52.9363 54.3084 53.3616 55.566 54.2124C56.8236 55.0446 57.7853 56.2189 58.4511 57.7354C59.1353 59.2334 59.4775 60.9811 59.4775 62.9784C59.4775 64.9757 59.1353 66.7326 58.4511 68.2491C57.7853 69.7471 56.8236 70.9215 55.566 71.7722C54.3084 72.6044 52.8012 73.0205 51.0443 73.0205ZM51.0443 70.3851C52.0984 70.3851 53.0324 70.0892 53.8461 69.4974C54.6783 68.9056 55.3256 68.0549 55.7879 66.9453C56.2503 65.8357 56.4815 64.5134 56.4815 62.9784C56.4815 61.4434 56.2503 60.1211 55.7879 59.0115C55.3256 57.9019 54.6783 57.0511 53.8461 56.4593C53.0324 55.8675 52.0984 55.5716 51.0443 55.5716C49.9717 55.5716 49.0285 55.8675 48.2148 56.4593C47.401 57.0511 46.763 57.9019 46.3006 59.0115C45.8383 60.1211 45.6071 61.4434 45.6071 62.9784C45.6071 64.5134 45.8383 65.8357 46.3006 66.9453C46.763 68.0549 47.401 68.9056 48.2148 69.4974C49.0285 70.0892 49.9717 70.3851 51.0443 70.3851ZM58.5031 75.961L60.112 69.4142H63.0248L60.4726 75.961H58.5031ZM71.3775 73.0205C69.9535 73.0205 68.7514 72.7524 67.7713 72.216C66.7911 71.6797 65.9959 70.9677 65.3856 70.08C64.7938 69.1923 64.3684 68.1936 64.1095 67.084C63.8506 65.9744 63.7211 64.837 63.7211 63.6719C63.7211 61.5266 64.017 59.6495 64.6088 58.0406C65.2191 56.4316 66.0883 55.1833 67.2164 54.2956C68.3446 53.3894 69.7131 52.9363 71.3221 52.9363C72.5981 52.9363 73.6893 53.1859 74.5955 53.6853C75.5016 54.1846 76.2044 54.8504 76.7037 55.6826C77.2216 56.5148 77.536 57.421 77.6469 58.4012H74.9006C74.7342 57.4395 74.3365 56.6998 73.7078 56.1819C73.079 55.6641 72.2745 55.4052 71.2943 55.4052C69.9443 55.4052 68.8254 56.0432 67.9377 57.3193C67.0685 58.5769 66.6061 60.5187 66.5507 63.1448C66.9945 62.3311 67.6788 61.6376 68.6035 61.0643C69.5467 60.491 70.6285 60.2043 71.8491 60.2043C72.9403 60.2043 73.9574 60.4632 74.9006 60.9811C75.8623 61.4989 76.639 62.2294 77.2308 63.1726C77.8411 64.0973 78.1463 65.1976 78.1463 66.4737C78.1463 67.6018 77.8688 68.6652 77.314 69.6639C76.7592 70.6626 75.9732 71.4763 74.9561 72.1051C73.9574 72.7154 72.7646 73.0205 71.3775 73.0205ZM71.2111 70.4684C71.9878 70.4684 72.6813 70.3019 73.2916 69.969C73.9019 69.6362 74.3828 69.1831 74.7342 68.6097C75.0855 68.0179 75.2612 67.3522 75.2612 66.6124C75.2612 65.4288 74.8729 64.4856 74.0961 63.7829C73.3379 63.0801 72.367 62.7287 71.1834 62.7287C70.4066 62.7287 69.7039 62.9044 69.0751 63.2558C68.4648 63.6072 67.9839 64.0788 67.6326 64.6706C67.2812 65.2439 67.1055 65.8819 67.1055 66.5847C67.1055 67.3429 67.2812 68.0179 67.6326 68.6097C68.0024 69.1831 68.4925 69.6362 69.1028 69.969C69.7316 70.3019 70.4344 70.4684 71.2111 70.4684ZM88.9606 72.6876V68.8039H79.2236V66.4737L88.489 53.2692H91.8733V66.2518H94.5919V68.8039H91.8733V72.6876H88.9606ZM82.4138 66.2518H89.127V56.5148L82.4138 66.2518ZM95.3422 72.6876V70.5793C96.5998 69.5807 97.8019 68.5728 98.9485 67.5556C100.095 66.5384 101.112 65.5398 102 64.5596C102.906 63.5609 103.618 62.59 104.136 61.6468C104.654 60.6852 104.913 59.7605 104.913 58.8728C104.913 58.281 104.811 57.7262 104.608 57.2083C104.404 56.672 104.071 56.2467 103.609 55.9323C103.147 55.5994 102.527 55.4329 101.75 55.4329C100.585 55.4329 99.7067 55.8028 99.1149 56.5426C98.5416 57.2823 98.2642 58.17 98.2827 59.2057H95.4254C95.4439 57.8371 95.7306 56.6905 96.2854 55.7658C96.8587 54.8411 97.6169 54.1384 98.5601 53.6575C99.5218 53.1767 100.604 52.9363 101.806 52.9363C103.637 52.9363 105.098 53.4541 106.189 54.4898C107.298 55.5069 107.853 56.9309 107.853 58.7618C107.853 59.8529 107.585 60.9348 107.049 62.0075C106.531 63.0801 105.847 64.1158 104.996 65.1144C104.164 66.0946 103.267 67.0193 102.305 67.8885C101.343 68.7577 100.428 69.5437 99.5588 70.2464H108.436V72.6876H95.3422Z" fill="#121212"/>
<rect x="130.593" y="54.5221" width="39.3278" height="17.3311" rx="6.66389" fill="#DAFFE9"/>
<path d="M137.737 64.2204V63.5087H139.248V62.0933H139.984V63.5087H141.495V64.2204H139.984V65.6438H139.248V64.2204H137.737ZM144.692 66.1876V65.0681H141.886V64.3964L144.557 60.59H145.532V64.3324H146.316V65.0681H145.532V66.1876H144.692ZM142.805 64.3324H144.74V61.5256L142.805 64.3324ZM148.603 66.2836C148.235 66.2836 147.921 66.2116 147.66 66.0677C147.398 65.9237 147.193 65.7318 147.044 65.4919C146.9 65.252 146.812 64.9908 146.78 64.7082H147.572C147.62 64.9855 147.734 65.1987 147.916 65.348C148.097 65.4972 148.329 65.5719 148.611 65.5719C149 65.5719 149.32 65.3906 149.571 65.0281C149.827 64.6603 149.963 64.0978 149.979 63.3408C149.851 63.5754 149.651 63.7753 149.379 63.9406C149.112 64.1058 148.803 64.1885 148.451 64.1885C148.137 64.1885 147.841 64.1138 147.564 63.9645C147.286 63.8153 147.063 63.6074 146.892 63.3408C146.721 63.0689 146.636 62.7491 146.636 62.3812C146.636 62.056 146.716 61.7495 146.876 61.4616C147.036 61.1737 147.26 60.9418 147.548 60.7659C147.841 60.5846 148.187 60.494 148.587 60.494C148.998 60.494 149.344 60.5713 149.627 60.7259C149.909 60.8805 150.136 61.0857 150.307 61.3416C150.477 61.5975 150.6 61.8854 150.674 62.2053C150.754 62.5251 150.794 62.853 150.794 63.1889C150.794 63.8073 150.706 64.3484 150.53 64.8122C150.36 65.276 150.112 65.6385 149.787 65.8997C149.462 66.1556 149.067 66.2836 148.603 66.2836ZM148.643 63.4608C148.867 63.4608 149.067 63.4101 149.243 63.3088C149.419 63.2075 149.557 63.0743 149.659 62.909C149.765 62.7384 149.819 62.5518 149.819 62.3492C149.819 62.1306 149.765 61.9387 149.659 61.7735C149.557 61.6029 149.416 61.4696 149.235 61.3736C149.059 61.2777 148.859 61.2297 148.635 61.2297C148.411 61.2297 148.211 61.2777 148.035 61.3736C147.86 61.4696 147.718 61.6029 147.612 61.7735C147.51 61.9387 147.46 62.128 147.46 62.3412C147.46 62.6824 147.572 62.9543 147.796 63.1569C148.019 63.3595 148.302 63.4608 148.643 63.4608ZM153.616 66.2836C153.109 66.2836 152.672 66.1636 152.304 65.9237C151.942 65.6785 151.662 65.34 151.465 64.9082C151.273 64.471 151.177 63.9645 151.177 63.3888C151.177 62.813 151.273 62.3092 151.465 61.8774C151.662 61.4403 151.942 61.1017 152.304 60.8618C152.672 60.6166 153.109 60.494 153.616 60.494C154.122 60.494 154.557 60.6166 154.919 60.8618C155.282 61.1017 155.559 61.4403 155.751 61.8774C155.948 62.3092 156.047 62.813 156.047 63.3888C156.047 63.9645 155.948 64.471 155.751 64.9082C155.559 65.34 155.282 65.6785 154.919 65.9237C154.557 66.1636 154.122 66.2836 153.616 66.2836ZM153.616 65.5239C153.92 65.5239 154.189 65.4386 154.423 65.268C154.663 65.0974 154.85 64.8522 154.983 64.5323C155.117 64.2124 155.183 63.8313 155.183 63.3888C155.183 62.9463 155.117 62.5651 154.983 62.2453C154.85 61.9254 154.663 61.6802 154.423 61.5096C154.189 61.339 153.92 61.2537 153.616 61.2537C153.307 61.2537 153.035 61.339 152.8 61.5096C152.566 61.6802 152.382 61.9254 152.248 62.2453C152.115 62.5651 152.048 62.9463 152.048 63.3888C152.048 63.8313 152.115 64.2124 152.248 64.5323C152.382 64.8522 152.566 65.0974 152.8 65.268C153.035 65.4386 153.307 65.5239 153.616 65.5239ZM157.671 63.2608C157.421 63.2608 157.194 63.2049 156.992 63.0929C156.794 62.981 156.637 62.8237 156.52 62.6211C156.403 62.4132 156.344 62.1653 156.344 61.8774C156.344 61.5949 156.403 61.3523 156.52 61.1497C156.637 60.9418 156.797 60.7819 157 60.6699C157.202 60.558 157.429 60.502 157.679 60.502C157.925 60.502 158.146 60.558 158.343 60.6699C158.546 60.7819 158.706 60.9418 158.823 61.1497C158.94 61.3523 158.999 61.5949 158.999 61.8774C158.999 62.1653 158.94 62.4132 158.823 62.6211C158.706 62.8237 158.546 62.981 158.343 63.0929C158.146 63.2049 157.922 63.2608 157.671 63.2608ZM157.271 66.1876L160.478 60.59H161.31L158.111 66.1876H157.271ZM157.671 62.6531C157.842 62.6531 157.989 62.5891 158.111 62.4612C158.239 62.3279 158.303 62.1333 158.303 61.8774C158.303 61.6215 158.242 61.4296 158.119 61.3017C157.997 61.1684 157.847 61.1017 157.671 61.1017C157.501 61.1017 157.351 61.1684 157.224 61.3017C157.096 61.4296 157.032 61.6215 157.032 61.8774C157.032 62.1333 157.093 62.3279 157.216 62.4612C157.343 62.5891 157.495 62.6531 157.671 62.6531ZM160.958 66.2836C160.707 66.2836 160.481 66.2276 160.278 66.1157C160.081 66.0037 159.924 65.8464 159.806 65.6438C159.689 65.4359 159.631 65.188 159.631 64.9002C159.631 64.6176 159.689 64.3724 159.806 64.1645C159.924 63.9566 160.084 63.7966 160.286 63.6847C160.489 63.5727 160.715 63.5167 160.966 63.5167C161.211 63.5167 161.432 63.5727 161.63 63.6847C161.832 63.7966 161.992 63.9566 162.109 64.1645C162.227 64.3724 162.285 64.6176 162.285 64.9002C162.285 65.188 162.227 65.4359 162.109 65.6438C161.992 65.8464 161.832 66.0037 161.63 66.1157C161.432 66.2276 161.209 66.2836 160.958 66.2836ZM160.958 65.6678C161.129 65.6678 161.275 65.6039 161.398 65.4759C161.526 65.348 161.59 65.1561 161.59 64.9002C161.59 64.6443 161.528 64.4523 161.406 64.3244C161.283 64.1911 161.134 64.1245 160.958 64.1245C160.787 64.1245 160.638 64.1911 160.51 64.3244C160.382 64.4523 160.318 64.6443 160.318 64.9002C160.318 65.1561 160.38 65.348 160.502 65.4759C160.63 65.6039 160.782 65.6678 160.958 65.6678Z" fill="#0E803B"/>
<path fill-rule="evenodd" clip-rule="evenodd" d="M35.6433 119.003C40.2438 119.003 43.9732 122.732 43.9732 127.333L43.9732 154.655C43.9732 159.255 40.2438 162.985 35.6433 162.985C31.0429 162.985 27.3135 159.255 27.3135 154.655L27.3135 127.333C27.3135 122.732 31.0429 119.003 35.6433 119.003Z" fill="#7551DC"/>
<path fill-rule="evenodd" clip-rule="evenodd" d="M67.1306 109.007C71.7311 109.007 75.4605 112.736 75.4605 117.337L75.4605 154.655C75.4605 159.255 71.7311 162.985 67.1306 162.985C62.5302 162.985 58.8008 159.255 58.8008 154.655L58.8008 117.337C58.8008 112.736 62.5302 109.007 67.1306 109.007Z" fill="#7551DC"/>
<path fill-rule="evenodd" clip-rule="evenodd" d="M98.617 104.342C103.217 104.342 106.947 108.072 106.947 112.672L106.947 154.655C106.947 159.255 103.217 162.985 98.617 162.985C94.0165 162.985 90.2871 159.255 90.2871 154.655L90.2871 112.672C90.2871 108.072 94.0165 104.342 98.617 104.342Z" fill="#7551DC"/>
<path fill-rule="evenodd" clip-rule="evenodd" d="M130.104 88.3466C134.705 88.3466 138.434 92.076 138.434 96.6765V154.655C138.434 159.255 134.705 162.985 130.104 162.985C125.504 162.985 121.774 159.255 121.774 154.655V96.6765C121.774 92.076 125.504 88.3466 130.104 88.3466Z" fill="#7551DC"/>
<path fill-rule="evenodd" clip-rule="evenodd" d="M161.591 88.349C166.191 88.349 169.92 92.0784 169.92 96.6789L169.92 154.655C169.92 159.255 166.191 162.985 161.591 162.985C156.99 162.985 153.261 159.255 153.261 154.655L153.261 96.6789C153.261 92.0784 156.99 88.349 161.591 88.349Z" fill="#7551DC"/>
</svg>
