<svg width="27" height="26" viewBox="0 0 27 26" fill="none" xmlns="http://www.w3.org/2000/svg">
<path d="M11.6861 1.90593C12.4029 0.362462 14.5971 0.362461 15.3139 1.90593L17.5643 6.75167C17.8557 7.37917 18.4508 7.81149 19.1376 7.89474L24.4416 8.53757C26.131 8.74233 26.8091 10.8292 25.5627 11.9879L21.6495 15.6255C21.1428 16.0966 20.9155 16.7961 21.0486 17.4751L22.0762 22.7181C22.4035 24.3881 20.6283 25.6779 19.1412 24.8505L14.4724 22.253C13.8678 21.9166 13.1322 21.9166 12.5276 22.253L7.85879 24.8505C6.37166 25.6779 4.59645 24.3881 4.92378 22.7181L5.95143 17.4751C6.08451 16.7961 5.85722 16.0966 5.35048 15.6255L1.43732 11.9879C0.190896 10.8292 0.868966 8.74233 2.55839 8.53757L7.86237 7.89474C8.54922 7.81149 9.14426 7.37917 9.43567 6.75167L11.6861 1.90593Z" fill="#FFCC6A"/>
</svg>
